<svg id="Layer_5" enable-background="new 0 0 62 62" height="512" viewBox="0 0 62 62" width="512" xmlns="http://www.w3.org/2000/svg" xmlns:xlink="http://www.w3.org/1999/xlink"><linearGradient id="SVGID_1_" gradientUnits="userSpaceOnUse" x1="31" x2="31" y1="62" y2="0"><stop offset="0" stop-color="#9f2fff"/><stop offset="1" stop-color="#0bb1d3"/></linearGradient><path d="m47 19c0-.552.448-1 1-1s1 .448 1 1-.448 1-1 1-1-.448-1-1zm-8 0c0-.552-.448-1-1-1s-1 .448-1 1 .448 1 1 1 1-.448 1-1zm3.447 4.895 1.105-.553c.478-.239.834-.649 1.003-1.156s.131-1.05-.108-1.527l-.447-.895v-1.764h-2v2c0 .155.036.309.105.447l.553 1.105-1.105.553zm.553 5.105c2.284 0 4.275-1.543 4.843-3.751l-1.938-.498c-.34 1.324-1.535 2.249-2.905 2.249s-2.564-.925-2.905-2.249l-1.938.498c.57 2.209 2.561 3.751 4.843 3.751zm19 20v1h-2v6 1 1c0 2.206-1.794 4-4 4h-1-24-1c-2.206 0-4-1.794-4-4v-1-1-6h-2v-1c0-11.737 10.736-14.354 14-14.877v-1.505c-1.671-.836-3.037-2.066-4.054-3.531-2.947 5.468-8.615 8.913-14.946 8.913-9.374 0-17-7.626-17-17 0-7.994 5.553-14.699 13-16.505v-2.495h-2v-2h12v2h-2v2.493c2.263.548 4.397 1.547 6.267 2.966 2.089-4.409 6.556-7.459 11.733-7.459h4c7.168 0 13 5.832 13 13v.141c0 1.527-.299 3.006-.855 4.417.528.677.855 1.518.855 2.442 0 2.206-1.794 4-4 4h-.075c-.367 3.691-2.553 6.932-5.924 8.617l-.001 1.506c3.265.523 14 3.14 14 14.877zm-14.628-12.958-2.875 2.875 2.845 2.275 1-5.001c-.396-.072-.728-.12-.97-.149zm6.628 9.958h-6v6h-10v-6h-6v6.184c1.161.414 2 1.514 2 2.816v4c0 .352-.072.686-.184 1h18.369c-.113-.314-.185-.648-.185-1v-4c0-1.302.839-2.402 2-2.816zm-10 2v2h2v-4h-6v4h2v-2zm3.649-4-4.649-3.719-4.649 3.719zm7.843-27.705c.246-.744.396-1.512.462-2.295h-1.954v2c.528 0 1.03.108 1.492.295zm.508 3.705c0-1.102-.897-2-2-2v4c1.103-.001 2-.898 2-2zm-9.233-17.845c1.065 1.391 2.203 3.654 2.801 7.243 1.387.652 2.673 1.523 3.816 2.602h2.565c-.454-5.009-4.279-9.047-9.182-9.845zm-8.143 6.414c1.296-.369 2.649-.569 4.033-.569h.686c1.385 0 2.737.2 4.033.569-1.038-4.696-3.07-6.234-3.622-6.569h-1.507c-.553.335-2.585 1.873-3.623 6.569zm-4.322 4.579c.488.538 1.182.852 1.934.852h13.527c.752 0 1.446-.314 1.935-.852-2.311-2.036-5.248-3.148-8.355-3.148h-.686c-3.107 0-6.044 1.112-8.355 3.148zm-4.251-1.148h2.565c1.143-1.078 2.429-1.949 3.816-2.602.598-3.59 1.736-5.853 2.801-7.243-4.903.798-8.728 4.836-9.182 9.845zm1.949 10v-4c-1.103 0-2 .897-2 2s.897 2 2 2zm-2.252 1.302c-1.054-.721-1.748-1.931-1.748-3.302 0-1.038.407-1.976 1.057-2.687-.308-.691-.552-1.404-.728-2.132-.268-.429-.564-.833-.881-1.215l-1.377 1.377-1.414-1.414 1.371-1.371c-1.695-1.417-3.778-2.292-6.029-2.494v1.936h-2v-1.949c-2.283.207-4.366 1.111-6.034 2.501l1.377 1.377-1.414 1.414-1.377-1.377c-1.39 1.668-2.293 3.751-2.5 6.034h1.949v2h-1.949c.207 2.283 1.111 4.366 2.501 6.034l1.377-1.377 1.414 1.414-1.377 1.377c1.667 1.391 3.751 2.294 6.034 2.501v-1.949h2v1.954c2.258-.209 4.343-1.121 6.022-2.518l-1.365-1.365 1.414-1.414 1.369 1.369c1.122-1.338 1.929-2.949 2.308-4.724zm.364-9.302c.123.745.342 1.494.64 2.219.395-.131.81-.219 1.248-.219v-2zm-13.112-9.872c.657-.077 1.322-.128 2-.128.673 0 1.339.054 2 .132v-2.132h-4zm15.779 22.786c-.365-.923-.602-1.899-.703-2.914h-.076c-.118 0-.23-.025-.346-.035-1.359 5.789-6.618 10.035-12.654 10.035-7.168 0-13-5.832-13-13s5.832-13 13-13c3.459 0 6.676 1.344 9.072 3.69.08-.778.237-1.531.447-2.262-2.681-2.207-6.031-3.428-9.519-3.428-8.271 0-15 6.729-15 15s6.729 15 15 15c6.045 0 11.407-3.557 13.779-9.086zm6.116 3.915c.68.34 1.104 1.024 1.105 1.786v1.971l3 3 3-3v-1.968c-.002-.762.422-1.448 1.106-1.789 3.019-1.51 4.895-4.544 4.895-7.919l-.001-7.494c-.671.371-1.433.584-2.236.584h-13.528c-.804 0-1.565-.213-2.236-.584v7.496c.001 3.374 1.876 6.408 4.895 7.917zm-1.236 5.366.999 4.998 2.845-2.275-2.874-2.874c-.242.029-.574.077-.97.151zm-11.629 11.805h3.97v-4h7.18l-1.467-7.337c-3.715 1.098-9.225 3.962-9.683 11.337zm1.97 2v2.556c.591-.344 1.268-.556 2-.556v-2zm3 10c.552 0 1-.448 1-1v-1h-2v-2h2v-1c0-.552-.448-1-1-1h-1c-1.103 0-2 .897-2 2v1 1c0 1.103.897 2 2 2zm27-3v-1c0-1.103-.897-2-2-2h-1c-.552 0-1 .448-1 1v1h2v2h-2v1c0 .552.448 1 1 1h1c1.103 0 2-.897 2-2zm0-7h-2v2c.732 0 1.409.212 2 .556zm1.97-2c-.457-7.395-5.966-10.253-9.681-11.345l-1.469 7.345h7.18v4zm-57.97 2h20v-2h-20zm19 2h-21v2h21zm-17 6h19v-2h-19zm16-14h-20v2h20zm-17-2h19v-2h-19zm18.816-22h2.184v2h-2.184c-.414 1.161-1.514 2-2.816 2-1.654 0-3-1.346-3-3 0-1.302.839-2.402 2-2.816v-4.184h2v4.184c.847.302 1.514.969 1.816 1.816zm-1.816 1c0-.552-.448-1-1-1s-1 .448-1 1 .448 1 1 1 1-.448 1-1z" fill="url(#SVGID_1_)"/></svg>